%TF.GenerationSoftware,KiCad,Pcbnew,10.0.1*%
%TF.CreationDate,2026-04-26T18:46:03-05:00*%
%TF.ProjectId,BusinessCard,42757369-6e65-4737-9343-6172642e6b69,rev?*%
%TF.SameCoordinates,Original*%
%TF.FileFunction,Copper,L1,Top*%
%TF.FilePolarity,Positive*%
%FSLAX46Y46*%
G04 Gerber Fmt 4.6, Leading zero omitted, Abs format (unit mm)*
G04 Created by KiCad (PCBNEW 10.0.1) date 2026-04-26 18:46:03*
%MOMM*%
%LPD*%
G01*
G04 APERTURE LIST*
G04 Aperture macros list*
%AMRoundRect*
0 Rectangle with rounded corners*
0 $1 Rounding radius*
0 $2 $3 $4 $5 $6 $7 $8 $9 X,Y pos of 4 corners*
0 Add a 4 corners polygon primitive as box body*
4,1,4,$2,$3,$4,$5,$6,$7,$8,$9,$2,$3,0*
0 Add four circle primitives for the rounded corners*
1,1,$1+$1,$2,$3*
1,1,$1+$1,$4,$5*
1,1,$1+$1,$6,$7*
1,1,$1+$1,$8,$9*
0 Add four rect primitives between the rounded corners*
20,1,$1+$1,$2,$3,$4,$5,0*
20,1,$1+$1,$4,$5,$6,$7,0*
20,1,$1+$1,$6,$7,$8,$9,0*
20,1,$1+$1,$8,$9,$2,$3,0*%
%AMFreePoly0*
4,1,199,25.107691,24.847118,25.161763,24.824720,25.203147,24.783336,25.225545,24.729264,25.228427,24.700000,25.228427,0.000000,25.225545,-0.029264,25.203147,-0.083336,25.161763,-0.124720,25.107691,-0.147118,25.078427,-0.150000,1.131371,-0.150000,1.102107,-0.147118,1.079710,-0.137840,1.048036,-0.124721,1.025305,-0.106066,0.269239,0.650000,-21.821573,0.650000,-21.850837,0.652882,-21.904909,0.675280,
-21.946293,0.716664,-21.968691,0.770737,-21.971573,0.800000,-21.971573,23.900000,-21.968691,23.929264,-21.946293,23.983336,-21.904909,24.024720,-21.850837,24.047118,-21.821573,24.050000,24.278427,24.050000,24.307691,24.047118,24.361763,24.024720,24.403147,23.983336,24.425545,23.929264,24.428427,23.900000,24.428427,0.800000,24.425545,0.770736,24.403147,0.716664,24.361763,0.675280,24.307691,0.652882,
24.278427,0.650000,1.462742,0.650000,1.433478,0.652882,1.379407,0.675279,1.356676,0.693934,0.600610,1.450000,-21.021573,1.450000,-21.050837,1.452882,-21.104909,1.475280,-21.146293,1.516664,-21.168691,1.570737,-21.171573,1.600000,-21.171573,23.100000,-21.168691,23.129264,-21.146293,23.183336,-21.104909,23.224720,-21.050837,23.247118,-21.021573,23.250000,23.478427,23.250000,23.507691,23.247118,
23.561763,23.224720,23.603147,23.183336,23.625545,23.129264,23.628427,23.100000,23.628427,1.600000,23.625545,1.570736,23.603147,1.516664,23.561763,1.475280,23.507691,1.452882,23.478427,1.450000,1.794113,1.450000,1.764849,1.452882,1.710778,1.475279,1.688047,1.493934,0.931981,2.250000,-20.221573,2.250000,-20.250837,2.252882,-20.304909,2.275280,-20.346293,2.316664,-20.368691,2.370737,
-20.371573,2.400000,-20.371573,22.300000,-20.368691,22.329264,-20.346293,22.383336,-20.304909,22.424720,-20.250837,22.447118,-20.221573,22.450000,22.678427,22.450000,22.707691,22.447118,22.761763,22.424720,22.803147,22.383336,22.825545,22.329264,22.828427,22.300000,22.828427,2.400000,22.825545,2.370736,22.803147,2.316664,22.761763,2.275280,22.707691,2.252882,22.678427,2.250000,2.125483,2.250000,
2.096219,2.252882,2.042148,2.275279,2.019417,2.293934,1.263351,3.050000,-19.421573,3.050000,-19.450837,3.052882,-19.504909,3.075280,-19.546293,3.116664,-19.568691,3.170737,-19.571573,3.200000,-19.571573,21.500000,-19.568691,21.529264,-19.546293,21.583336,-19.504909,21.624720,-19.450837,21.647118,-19.421573,21.650000,21.878427,21.650000,21.907691,21.647118,21.961763,21.624720,22.003147,21.583336,
22.025545,21.529264,22.028427,21.500000,22.028427,3.200000,22.025545,3.170736,22.003147,3.116664,21.961763,3.075280,21.907691,3.052882,21.849163,3.052882,21.795091,3.075280,21.753707,3.116664,21.731309,3.170736,21.728427,3.200000,21.728427,21.350000,-19.271573,21.350000,-19.271573,3.350000,1.325483,3.350000,1.354747,3.347118,1.377144,3.337840,1.408818,3.324721,1.431549,3.306066,
2.187615,2.550000,22.528427,2.550000,22.528427,22.150000,-20.071573,22.150000,-20.071573,2.550000,0.994113,2.550000,1.023377,2.547118,1.045774,2.537840,1.077448,2.524721,1.100179,2.506066,1.856245,1.750000,23.328427,1.750000,23.328427,22.950000,-20.871573,22.950000,-20.871573,1.750000,0.662742,1.750000,0.692006,1.747118,0.714403,1.737840,0.746077,1.724721,0.768808,1.706066,
1.524874,0.950000,24.128427,0.950000,24.128427,23.750000,-21.671573,23.750000,-21.671573,0.950000,0.331371,0.950000,0.360635,0.947118,0.383032,0.937840,0.414706,0.924721,0.437437,0.906066,1.193503,0.150000,24.928427,0.150000,24.928427,24.550000,-22.471573,24.550000,-22.471573,0.150000,0.000000,0.150000,0.029264,0.147118,0.083336,0.124720,0.124720,0.083336,0.147118,0.029264,
0.147118,-0.029264,0.124720,-0.083336,0.083336,-0.124720,0.029264,-0.147118,0.000000,-0.150000,-22.621573,-0.150000,-22.650837,-0.147118,-22.704909,-0.124720,-22.746293,-0.083336,-22.768691,-0.029263,-22.771573,0.000000,-22.771573,24.700000,-22.768691,24.729264,-22.746293,24.783336,-22.704909,24.824720,-22.650837,24.847118,-22.621573,24.850000,25.078427,24.850000,25.107691,24.847118,25.107691,24.847118,
$1*%
%AMFreePoly1*
4,1,21,19.450837,0.147118,19.504909,0.124720,19.546293,0.083336,19.568691,0.029264,19.568691,-0.029264,19.546293,-0.083336,19.504909,-0.124720,19.450837,-0.147118,19.421573,-0.150000,0.000000,-0.150000,-0.029264,-0.147118,-0.083336,-0.124720,-0.124720,-0.083336,-0.147118,-0.029264,-0.147118,0.029264,-0.124720,0.083336,-0.083336,0.124720,-0.029264,0.147118,0.000000,0.150000,19.421573,0.150000,
19.450837,0.147118,19.450837,0.147118,$1*%
G04 Aperture macros list end*
%TA.AperFunction,SMDPad,CuDef*%
%ADD10RoundRect,0.059400X-0.050600X0.295600X-0.050600X-0.295600X0.050600X-0.295600X0.050600X0.295600X0*%
%TD*%
%TA.AperFunction,SMDPad,CuDef*%
%ADD11RoundRect,0.059400X-0.050600X0.290600X-0.050600X-0.290600X0.050600X-0.290600X0.050600X0.290600X0*%
%TD*%
%TA.AperFunction,SMDPad,CuDef*%
%ADD12RoundRect,0.059400X-0.290600X0.050600X-0.290600X-0.050600X0.290600X-0.050600X0.290600X0.050600X0*%
%TD*%
%TA.AperFunction,SMDPad,CuDef*%
%ADD13RoundRect,0.225000X0.250000X-0.225000X0.250000X0.225000X-0.250000X0.225000X-0.250000X-0.225000X0*%
%TD*%
%TA.AperFunction,SMDPad,CuDef*%
%ADD14R,1.000000X1.400000*%
%TD*%
%TA.AperFunction,SMDPad,CuDef*%
%ADD15RoundRect,0.200000X0.275000X-0.200000X0.275000X0.200000X-0.275000X0.200000X-0.275000X-0.200000X0*%
%TD*%
%TA.AperFunction,SMDPad,CuDef*%
%ADD16FreePoly0,270.000000*%
%TD*%
%TA.AperFunction,SMDPad,CuDef*%
%ADD17FreePoly1,270.000000*%
%TD*%
%TA.AperFunction,ViaPad*%
%ADD18C,0.600000*%
%TD*%
%TA.AperFunction,Conductor*%
%ADD19C,0.200000*%
%TD*%
G04 APERTURE END LIST*
D10*
%TO.P,U1,1,LA_1*%
%TO.N,Net-(U1-LA)*%
X233485000Y-90245000D03*
%TO.P,U1,2,VSS_2*%
%TO.N,Net-(LED1--)*%
X232985000Y-90245000D03*
D11*
%TO.P,U1,3,SCL_3*%
%TO.N,unconnected-(U1-SCL-Pad3)*%
X232485000Y-90245000D03*
D12*
%TO.P,U1,4,FD_4*%
%TO.N,unconnected-(U1-FD-Pad4)*%
X232290000Y-90940000D03*
D11*
%TO.P,U1,5,SDA_5*%
%TO.N,unconnected-(U1-SDA-Pad5)*%
X232485000Y-91635000D03*
%TO.P,U1,6,VCC_6*%
%TO.N,Net-(U1-VCC)*%
X232985000Y-91635000D03*
%TO.P,U1,7,VOUT_7*%
X233485000Y-91635000D03*
D12*
%TO.P,U1,8,LB_8*%
%TO.N,Net-(U1-LB)*%
X233680000Y-90940000D03*
%TD*%
D13*
%TO.P,C1,1*%
%TO.N,Net-(U1-VCC)*%
X230632000Y-91707000D03*
%TO.P,C1,2*%
%TO.N,Net-(LED1--)*%
X230632000Y-90157000D03*
%TD*%
D14*
%TO.P,LED1,1,+_1*%
%TO.N,Net-(LED1-+)*%
X228278000Y-87884000D03*
%TO.P,LED1,2,-_2*%
%TO.N,Net-(LED1--)*%
X230378000Y-87884000D03*
%TD*%
D15*
%TO.P,R1,1*%
%TO.N,Net-(U1-VCC)*%
X228346000Y-91757000D03*
%TO.P,R1,2*%
%TO.N,Net-(LED1-+)*%
X228346000Y-90107000D03*
%TD*%
D16*
%TO.P,L1,1,1_1*%
%TO.N,Net-(U1-LA)*%
X236520000Y-89061573D03*
D17*
%TO.P,L1,2,2_2*%
%TO.N,Net-(U1-LB)*%
X239720000Y-91518427D03*
%TD*%
D18*
%TO.N,Net-(U1-LA)*%
X236520000Y-89061573D03*
%TO.N,Net-(U1-LB)*%
X234696000Y-91440000D03*
X239720000Y-91518427D03*
%TD*%
%TO.N,Net-(U1-LA)*%
D19*
X234668427Y-89061573D02*
X236520000Y-89061573D01*
X233485000Y-90245000D02*
X234668427Y-89061573D01*
%TO.N,Net-(LED1--)*%
X232686114Y-89595000D02*
X231194000Y-89595000D01*
X230632000Y-90157000D02*
X230632000Y-88138000D01*
X232985000Y-90245000D02*
X232985000Y-89893886D01*
X231194000Y-89595000D02*
X230632000Y-90157000D01*
X232985000Y-89893886D02*
X232686114Y-89595000D01*
X230632000Y-88138000D02*
X230378000Y-87884000D01*
%TO.N,Net-(U1-VCC)*%
X232985000Y-91635000D02*
X232985000Y-91986114D01*
X232686114Y-92285000D02*
X231210000Y-92285000D01*
X228346000Y-91757000D02*
X230582000Y-91757000D01*
X232985000Y-91635000D02*
X233485000Y-91635000D01*
X230582000Y-91757000D02*
X230632000Y-91707000D01*
X231210000Y-92285000D02*
X230632000Y-91707000D01*
X232985000Y-91986114D02*
X232686114Y-92285000D01*
%TO.N,Net-(U1-LB)*%
X233680000Y-90940000D02*
X234196000Y-90940000D01*
X234196000Y-90940000D02*
X234696000Y-91440000D01*
%TO.N,Net-(LED1-+)*%
X228278000Y-87884000D02*
X228278000Y-90039000D01*
X228278000Y-90039000D02*
X228346000Y-90107000D01*
%TD*%
M02*
